<svg id="Layer_1" data-name="Layer 1" xmlns="http://www.w3.org/2000/svg" viewBox="0 0 194.25619 159.08912"><defs><style>.cls-1{fill:#5f224a;}</style></defs><path class="cls-1" d="M88.06462,101.58949l.001.01269,18.126-.01269V71.50062H88.06462Z"/><path class="cls-1" d="M173.69548,0H20.56071A20.62124,20.62124,0,0,0-.00008,20.56068V138.52845a20.62124,20.62124,0,0,0,20.56079,20.56067H173.69548a20.62124,20.62124,0,0,0,20.56079-20.56067V20.56068A20.62124,20.62124,0,0,0,173.69548,0Zm.56055,61.50061a10.00018,10.00018,0,0,1-10,10H126.19157v30.08887a20.0226,20.0226,0,0,1-20,20H88.06462a20.0226,20.0226,0,0,1-20-20V71.50062H30.00017a10.00018,10.00018,0,0,1-10-10v-17a10,10,0,1,1,20,0v7H154.256v-7a10,10,0,0,1,20,0Z"/></svg>